# Blender 5.0.0
# www.blender.org
mtllib track_collision3.mtl
o Cylinder
v 0.037500 -0.290000 0.095000
v -0.037500 -0.290000 0.095000
v 0.037500 -0.326355 0.087769
v -0.037500 -0.326355 0.087769
v 0.037500 -0.357175 0.067175
v -0.037500 -0.357175 0.067175
v 0.037500 -0.377769 0.036355
v -0.037500 -0.377769 0.036355
v 0.037500 -0.385000 0.000000
v -0.037500 -0.385000 -0.000000
v 0.037500 -0.377769 -0.036355
v -0.037500 -0.377769 -0.036355
v 0.037500 -0.357175 -0.067175
v -0.037500 -0.357175 -0.067175
v 0.037500 -0.326355 -0.087769
v -0.037500 -0.326355 -0.087769
v 0.037500 -0.290000 -0.095000
v -0.037500 -0.290000 -0.095000
v 0.037500 0.000000 0.120000
v -0.037500 0.000000 0.120000
v 0.037500 0.000000 -0.120000
v -0.037500 0.000000 -0.120000
v 0.037500 0.045922 -0.110866
v -0.037500 0.045922 -0.110866
v 0.037500 0.084853 -0.084853
v -0.037500 0.084853 -0.084853
v 0.037500 0.110866 -0.045922
v -0.037500 0.110866 -0.045922
v 0.037500 0.120000 0.000000
v -0.037500 0.120000 -0.000000
v 0.037500 0.110866 0.045922
v -0.037500 0.110866 0.045922
v 0.037500 0.084853 0.084853
v -0.037500 0.084853 0.084853
v 0.037500 0.045922 0.110866
v -0.037500 0.045922 0.110866
vn -0.0000 -0.1951 0.9808
vn -0.0000 -0.5556 0.8315
vn -0.0000 -0.8315 0.5556
vn -0.0000 -0.9808 0.1951
vn -0.0000 -0.9808 -0.1951
vn -0.0000 -0.8315 -0.5556
vn -0.0000 -0.5556 -0.8315
vn -0.0000 -0.1951 -0.9808
vn -0.0000 0.1951 -0.9808
vn -0.0000 0.5556 -0.8315
vn -0.0000 0.8315 -0.5556
vn -0.0000 0.9808 -0.1951
vn -0.0000 0.9808 0.1951
vn -0.0000 0.8315 0.5556
vn -0.0000 0.5556 0.8315
vn -0.0000 0.1951 0.9808
vn -0.0000 -0.0859 -0.9963
vn 1.0000 -0.0000 -0.0000
vn -1.0000 -0.0000 -0.0000
vn -0.0000 -0.0859 0.9963
vt 1.000000 0.500000
vt 1.000000 1.000000
vt 0.937500 1.000000
vt 0.937500 0.500000
vt 0.875000 1.000000
vt 0.875000 0.500000
vt 0.812500 1.000000
vt 0.812500 0.500000
vt 0.750000 1.000000
vt 0.750000 0.500000
vt 0.687500 1.000000
vt 0.687500 0.500000
vt 0.625000 1.000000
vt 0.625000 0.500000
vt 0.562500 1.000000
vt 0.562500 0.500000
vt 0.500000 1.000000
vt 0.500000 0.500000
vt 0.437500 1.000000
vt 0.437500 0.500000
vt 0.375000 1.000000
vt 0.375000 0.500000
vt 0.312500 1.000000
vt 0.312500 0.500000
vt 0.250000 1.000000
vt 0.250000 0.500000
vt 0.187500 1.000000
vt 0.187500 0.500000
vt 0.125000 1.000000
vt 0.125000 0.500000
vt 0.062500 1.000000
vt 0.062500 0.500000
vt 0.000000 1.000000
vt 0.000000 0.500000
vt 0.000000 0.000000
vt 0.250000 0.490000
vt 0.158156 0.471731
vt 0.080294 0.419706
s 0
f 1/1/1 2/2/1 4/3/1 3/4/1
f 3/4/2 4/3/2 6/5/2 5/6/2
f 5/6/3 6/5/3 8/7/3 7/8/3
f 7/8/4 8/7/4 10/9/4 9/10/4
f 9/10/5 10/9/5 12/11/5 11/12/5
f 11/12/6 12/11/6 14/13/6 13/14/6
f 13/14/7 14/13/7 16/15/7 15/16/7
f 15/16/8 16/15/8 18/17/8 17/18/8
f 21/18/9 22/17/9 24/19/9 23/20/9
f 23/20/10 24/19/10 26/21/10 25/22/10
f 25/22/11 26/21/11 28/23/11 27/24/11
f 27/24/12 28/23/12 30/25/12 29/26/12
f 29/26/13 30/25/13 32/27/13 31/28/13
f 31/28/14 32/27/14 34/29/14 33/30/14
f 33/30/15 34/29/15 36/31/15 35/32/15
f 35/32/16 36/31/16 20/33/16 19/34/16
f 18/17/17 22/17/17 21/35/17 17/18/17
f 21/35/18 23/20/18 25/22/18 27/24/18 29/26/18 31/28/18 33/30/18 35/32/18 19/34/18 1/1/18 3/4/18 5/6/18 7/8/18 9/10/18 11/12/18 13/14/18 15/16/18 17/18/18
f 28/23/19 26/21/19 24/19/19 22/17/19 18/35/19 16/15/19 14/13/19 12/11/19 10/9/19 8/7/19 6/5/19 4/3/19 2/2/19 20/36/19 36/37/19 34/38/19 32/27/19 30/25/19
f 19/35/20 20/2/20 2/2/20 1/1/20
