# Blender 5.0.0
# www.blender.org
mtllib track_collision2.mtl
o Cylinder.001
v 0.500000 2.299190 0.051812
v -0.500000 2.299190 0.051812
v 0.500000 2.172138 0.257422
v -0.500000 2.172138 0.257422
v 0.500000 2.144260 -0.269605
v -0.500000 2.144260 -0.269605
v 0.500000 2.283333 -0.109185
v -0.500000 2.283333 -0.109185
v 0.500000 -0.098201 0.495079
v -0.500000 -0.098201 0.495079
v 0.500000 -0.404439 0.313270
v -0.500000 -0.404439 0.313270
v 0.500000 -0.505915 -0.012588
v -0.500000 -0.505915 -0.012588
v 0.500000 -0.404439 -0.313270
v -0.500000 -0.404439 -0.313270
v 0.500000 -0.098201 -0.495079
v -0.500000 -0.098201 -0.495079
v 0.500000 2.065383 -0.002356
v -0.500000 2.065383 -0.002356
v 0.500000 2.044491 0.054183
v -0.500000 2.044491 0.054183
v 0.500000 2.033777 -0.056547
v -0.500000 2.033777 -0.056547
v 0.500000 2.062863 -0.014354
v -0.500000 2.062863 -0.014354
v 0.500000 -0.046826 0.260642
v -0.500000 -0.046826 0.260642
v 0.500000 -0.216093 0.164522
v -0.500000 -0.216093 0.164522
v 0.500000 -0.265932 -0.009757
v -0.500000 -0.265932 -0.009757
v 0.500000 -0.217860 -0.162311
v -0.500000 -0.217860 -0.162311
v 0.500000 -0.046347 -0.260748
v -0.500000 -0.046347 -0.260748
vn -0.0000 0.8507 0.5257
vn -0.0000 0.7556 -0.6550
vn -0.0000 0.9952 -0.0980
vn -0.0000 -0.5105 0.8599
vn -0.0000 -0.9548 0.2973
vn -0.0000 -0.9475 -0.3198
vn -0.0000 -0.5105 -0.8599
vn -0.0000 0.1041 0.9946
vn -0.0000 0.1000 -0.9950
vn -0.0000 -0.9380 -0.3466
vn -0.0000 -0.8233 0.5676
vn -0.0000 -0.9787 0.2055
vn -0.0000 0.4938 -0.8696
vn -0.0000 0.9615 -0.2750
vn -0.0000 0.9538 0.3005
vn -0.0000 0.4978 0.8673
vn -0.0000 -0.0982 -0.9952
vn -0.0000 -0.0977 0.9952
vn 1.0000 -0.0000 -0.0000
vn -1.0000 -0.0000 -0.0000
vt 0.843953 0.500000
vt 0.972653 0.500000
vt 0.972653 1.000000
vt 0.843953 1.000000
vt 0.058402 0.500000
vt 0.171831 0.500000
vt 0.171831 1.000000
vt 0.058402 1.000000
vt 0.000000 0.500000
vt 0.000000 1.000000
vt 0.604725 0.500000
vt 0.718917 0.500000
vt 0.718917 1.000000
vt 0.604725 1.000000
vt 0.496078 0.500000
vt 0.496078 1.000000
vt 0.395275 0.500000
vt 0.395275 1.000000
vt 0.281083 0.500000
vt 0.281083 1.000000
vt 0.000000 0.000000
s 0
f 3/1/1 1/2/1 2/3/1 4/4/1
f 7/5/2 5/6/2 6/7/2 8/8/2
f 1/9/3 7/5/3 8/8/3 2/10/3
f 11/11/4 9/12/4 10/13/4 12/14/4
f 13/15/5 11/11/5 12/14/5 14/16/5
f 15/17/6 13/15/6 14/16/6 16/18/6
f 17/19/7 15/17/7 16/18/7 18/20/7
f 10/13/8 9/12/8 3/1/8 4/21/8
f 6/7/9 5/6/9 17/19/9 18/20/9
f 21/1/10 22/4/10 20/3/10 19/2/10
f 25/5/11 26/8/11 24/7/11 23/6/11
f 19/9/12 20/10/12 26/8/12 25/5/12
f 29/11/13 30/14/13 28/13/13 27/12/13
f 31/15/14 32/16/14 30/14/14 29/11/14
f 33/17/15 34/18/15 32/16/15 31/15/15
f 35/19/16 36/20/16 34/18/16 33/17/16
f 28/13/17 22/21/17 21/1/17 27/12/17
f 24/7/18 36/20/18 35/19/18 23/6/18
f 1/2/19 3/1/19 21/1/19 19/2/19
f 4/4/20 2/3/20 20/3/20 22/4/20
f 5/6/19 7/5/19 25/5/19 23/6/19
f 8/8/20 6/7/20 24/7/20 26/8/20
f 7/5/19 1/9/19 19/9/19 25/5/19
f 2/10/20 8/8/20 26/8/20 20/10/20
f 9/12/19 11/11/19 29/11/19 27/12/19
f 12/14/20 10/13/20 28/13/20 30/14/20
f 11/11/19 13/15/19 31/15/19 29/11/19
f 14/16/20 12/14/20 30/14/20 32/16/20
f 13/15/19 15/17/19 33/17/19 31/15/19
f 16/18/20 14/16/20 32/16/20 34/18/20
f 15/17/19 17/19/19 35/19/19 33/17/19
f 18/20/20 16/18/20 34/18/20 36/20/20
f 17/19/19 5/6/19 23/6/19 35/19/19
f 3/1/19 9/12/19 27/12/19 21/1/19
f 10/13/20 4/21/20 22/21/20 28/13/20
f 6/7/20 18/20/20 36/20/20 24/7/20
